P3
300 5
255
0   255 0   0   255 0   255 255 255 0   255 0   0   255 0   0   255 0   255 255 255 0   255 0   255 255 255 0   255 0   0   255 0   255 255 255 0   255 0   255 255 255 0   255 0   255 255 255 255 255 255 255 255 255 255 255 255 255 255 255 255 255 255 0   255 0   0   255 0   255 255 255 255 255 255 0   255 0   255 255 255 255 255 255 255 255 255 0   255 0   0   255 0   0   255 0   255 255 255 0   255 0   0   255 0   0   255 0   0   255 0   255 255 255 0   255 0   0   255 0   0   255 0   0   255 0   255 255 255 0   255 0   0   255 0   0   255 0   0   255 0   0   255 0   0   255 0   0   255 0   0   255 0   0   255 0   0   255 0   0   255 0   0   255 0   0   255 0   0   255 0   0   255 0   0   255 0   0   255 0   0   255 0   0   255 0   0   255 0   0   255 0   0   255 0   0   255 0   0   255 0   0   255 0   0   255 0   0   255 0   0   255 0   0   255 0   0   255 0   255 255 255 0   255 0   0   255 0   255 255 255 255 255 255 0   255 0   0   255 0   0   255 0   255 255 255 255 255 255 0   255 0   0   255 0   255 255 255 255 255 255 255 255 255 0   255 0   0   255 0   255 255 255 255 255 255 255 255 255 0   255 0   0   255 0   255 255 255 0   255 0   0   255 0   255 255 255 0   255 0   255 255 255 255 255 255 255 255 255 255 255 255 0   255 0   0   255 0   255 255 255 255 255 255 0   255 0   0   255 0   255 255 255 255 255 255 255 255 255 255 255 255 0   255 0   0   255 0   255 255 255 255 255 255 0   255 0   0   255 0   0   255 0   255 255 255 255 255 255 0   255 0   0   255 0   0   255 0   0   255 0   0   255 0   0   255 0   0   255 0   0   255 0   0   255 0   0   255 0   0   255 0   0   255 0   0   255 0   0   255 0   0   255 0   0   255 0   0   255 0   0   255 0   0   255 0   0   255 0   0   255 0   0   255 0   0   255 0   0   255 0   0   255 0   0   255 0   0   255 0   0   255 0   255 255 255 255 255 255 255 255 255 0   255 0   0   255 0   255 255 255 255 255 255 255 255 255 0   255 0   0   255 0   255 255 255 255 255 255 0   255 0   0   255 0   255 255 255 255 255 255 255 255 255 0   255 0   0   255 0   0   255 0   255 255 255 255 255 255 255 255 255 0   255 0   255 255 255 255 255 255 255 255 255 0   255 0   0   255 0   255 255 255 255 255 255 255 255 255 255 255 255 0   255 0   255 255 255 255 255 255 255 255 255 255 255 255 0   255 0   255 255 255 255 255 255 255 255 255 255 255 255 0   255 0   255 255 255 0   255 0   0   255 0   255 255 255 0   255 0   0   255 0   255 255 255 255 255 255 255 255 255 0   255 0   0   255 0   0   255 0   255 255 255 255 255 255 0   255 0   255 255 255 0   255 0   0   255 0   255 255 255 0   255 0   255 255 255 0   255 0   0   255 0   0   255 0   0   255 0   255 255 255 0   255 0   0   255 0   0   255 0   255 255 255 255 255 255 0   255 0   0   255 0   255 255 255 0   255 0   0   255 0   255 255 255 255 255 255 0   255 0   0   255 0   255 255 255 255 255 255 255 255 255 0   255 0   0   255 0   0   255 0   255 255 255 255 255 255 0   255 0   0   255 0   255 255 255 255 255 255 255 255 255 0   255 0   0   255 0   0   255 0   255 255 255 255 255 255 255 255 255 0   255 0   255 255 255 255 255 255 255 255 255 0   255 0   0   255 0   255 255 255 0   255 0   0   255 0   255 255 255 0   255 0   255 255 255 0   255 0   0   255 0   255 255 255 0   255 0   255 255 255 0   255 0   0   255 0   0   255 0   255 255 255 255 255 255 0   255 0   0   255 0   255 255 255 0   255 0   255 255 255 0   255 0   0   255 0   255 255 255 0   255 0   255 255 255 255 255 255 255 255 255 255 255 255 0   255 0   0   255 0   255 255 255 255 255 255 0   255 0   0   255 0   0   255 0   255 255 255 0   255 0   0   255 0   0   255 0   
0   255 0   0   255 0   255 255 255 0   255 0   0   255 0   0   255 0   255 255 255 0   255 0   255 255 255 0   255 0   255 255 255 255 255 255 255 255 255 255 255 255 255 255 255 255 255 255 0   255 0   255 255 255 0   255 0   0   255 0   255 255 255 0   255 0   255 255 255 255 255 255 0   255 0   0   255 0   255 255 255 0   255 0   0   255 0   0   255 0   0   255 0   0   255 0   255 255 255 0   255 0   0   255 0   0   255 0   255 255 255 0   255 0   0   255 0   0   255 0   0   255 0   0   255 0   0   255 0   255 255 255 0   255 0   0   255 0   255 255 255 255 255 255 0   255 0   0   255 0   0   255 0   0   255 0   255 255 255 0   255 0   0   255 0   0   255 0   0   255 0   0   255 0   0   255 0   0   255 0   0   255 0   0   255 0   0   255 0   0   255 0   0   255 0   0   255 0   0   255 0   0   255 0   0   255 0   0   255 0   0   255 0   0   255 0   0   255 0   255 255 255 0   255 0   255 255 255 0   255 0   255 255 255 255 255 255 0   255 0   0   255 0   0   255 0   255 255 255 0   255 0   0   255 0   0   255 0   0   255 0   0   255 0   255 255 255 0   255 0   0   255 0   0   255 0   0   255 0   255 255 255 0   255 0   255 255 255 0   255 0   0   255 0   255 255 255 0   255 0   255 255 255 0   255 0   0   255 0   0   255 0   0   255 0   255 255 255 0   255 0   0   255 0   0   255 0   0   255 0   0   255 0   0   255 0   0   255 0   255 255 255 0   255 0   255 255 255 0   255 0   0   255 0   255 255 255 0   255 0   255 255 255 0   255 0   0   255 0   255 255 255 0   255 0   0   255 0   0   255 0   255 255 255 0   255 0   0   255 0   0   255 0   0   255 0   255 255 255 0   255 0   0   255 0   0   255 0   0   255 0   255 255 255 0   255 0   0   255 0   0   255 0   255 255 255 255 255 255 0   255 0   0   255 0   0   255 0   255 255 255 0   255 0   0   255 0   0   255 0   0   255 0   0   255 0   0   255 0   255 255 255 0   255 0   255 255 255 0   255 0   0   255 0   0   255 0   255 255 255 255 255 255 0   255 0   0   255 0   255 255 255 0   255 0   255 255 255 0   255 0   0   255 0   255 255 255 0   255 0   255 255 255 0   255 0   0   255 0   0   255 0   0   255 0   255 255 255 0   255 0   0   255 0   255 255 255 0   255 0   255 255 255 0   255 0   0   255 0   0   255 0   0   255 0   255 255 255 0   255 0   0   255 0   0   255 0   0   255 0   255 255 255 0   255 0   0   255 0   0   255 0   0   255 0   255 255 255 0   255 0   0   255 0   255 255 255 0   255 0   0   255 0   0   255 0   255 255 255 0   255 0   0   255 0   0   255 0   0   255 0   0   255 0   255 255 255 0   255 0   255 255 255 0   255 0   255 255 255 0   255 0   0   255 0   255 255 255 0   255 0   0   255 0   0   255 0   0   255 0   255 255 255 255 255 255 0   255 0   255 255 255 255 255 255 255 255 255 255 255 255 0   255 0   255 255 255 0   255 0   255 255 255 0   255 0   0   255 0   255 255 255 0   255 0   255 255 255 0   255 0   0   255 0   255 255 255 0   255 0   255 255 255 0   255 0   0   255 0   255 255 255 0   255 0   255 255 255 0   255 0   0   255 0   255 255 255 0   255 0   255 255 255 0   255 0   0   255 0   0   255 0   0   255 0   0   255 0   255 255 255 0   255 0   0   255 0   0   255 0   255 255 255 0   255 0   0   255 0   255 255 255 0   255 0   255 255 255 0   255 0   0   255 0   255 255 255 0   255 0   255 255 255 0   255 0   255 255 255 0   255 0   255 255 255 255 255 255 0   255 0   0   255 0   255 255 255 0   255 0   255 255 255 0   255 0   0   255 0   255 255 255 0   255 0   0   255 0   0   255 0   0   255 0   255 255 255 0   255 0   0   255 0   255 255 255 0   255 0   0   255 0   0   255 0   0   255 0   255 255 255 0   255 0   0   255 0   0   255 0   
0   255 0   0   255 0   255 255 255 0   255 0   0   255 0   0   255 0   0   255 0   0   255 0   0   255 0   0   255 0   0   255 0   255 255 255 0   255 0   255 255 255 0   255 0   0   255 0   255 255 255 255 255 255 255 255 255 0   255 0   0   255 0   0   255 0   255 255 255 0   255 0   0   255 0   0   255 0   0   255 0   255 255 255 0   255 0   0   255 0   0   255 0   0   255 0   0   255 0   0   255 0   0   255 0   0   255 0   255 255 255 0   255 0   0   255 0   0   255 0   0   255 0   0   255 0   0   255 0   255 255 255 0   255 0   0   255 0   255 255 255 255 255 255 0   255 0   0   255 0   0   255 0   255 255 255 255 255 255 255 255 255 0   255 0   0   255 0   0   255 0   0   255 0   0   255 0   0   255 0   0   255 0   255 255 255 255 255 255 255 255 255 0   255 0   0   255 0   0   255 0   0   255 0   0   255 0   0   255 0   0   255 0   0   255 0   255 255 255 0   255 0   0   255 0   255 255 255 0   255 0   255 255 255 255 255 255 0   255 0   0   255 0   0   255 0   255 255 255 0   255 0   0   255 0   0   255 0   255 255 255 255 255 255 0   255 0   0   255 0   0   255 0   255 255 255 255 255 255 0   255 0   0   255 0   255 255 255 255 255 255 255 255 255 255 255 255 0   255 0   255 255 255 255 255 255 255 255 255 0   255 0   0   255 0   255 255 255 255 255 255 255 255 255 0   255 0   0   255 0   0   255 0   0   255 0   255 255 255 0   255 0   0   255 0   0   255 0   255 255 255 255 255 255 0   255 0   0   255 0   0   255 0   255 255 255 255 255 255 255 255 255 0   255 0   0   255 0   0   255 0   0   255 0   0   255 0   0   255 0   0   255 0   0   255 0   0   255 0   0   255 0   0   255 0   0   255 0   255 255 255 0   255 0   0   255 0   0   255 0   0   255 0   0   255 0   0   255 0   0   255 0   0   255 0   0   255 0   0   255 0   255 255 255 0   255 0   0   255 0   0   255 0   0   255 0   255 255 255 0   255 0   0   255 0   255 255 255 0   255 0   255 255 255 255 255 255 255 255 255 255 255 255 0   255 0   0   255 0   255 255 255 0   255 0   255 255 255 255 255 255 255 255 255 0   255 0   0   255 0   255 255 255 0   255 0   0   255 0   0   255 0   0   255 0   255 255 255 0   255 0   0   255 0   255 255 255 0   255 0   255 255 255 255 255 255 255 255 255 255 255 255 0   255 0   255 255 255 255 255 255 255 255 255 255 255 255 0   255 0   255 255 255 0   255 0   255 255 255 255 255 255 0   255 0   255 255 255 255 255 255 255 255 255 255 255 255 0   255 0   0   255 0   0   255 0   255 255 255 0   255 0   0   255 0   0   255 0   0   255 0   0   255 0   255 255 255 0   255 0   255 255 255 255 255 255 0   255 0   0   255 0   0   255 0   255 255 255 0   255 0   0   255 0   0   255 0   0   255 0   255 255 255 0   255 0   255 255 255 0   255 0   255 255 255 255 255 255 0   255 0   255 255 255 255 255 255 0   255 0   255 255 255 0   255 0   0   255 0   255 255 255 0   255 0   255 255 255 0   255 0   0   255 0   255 255 255 0   255 0   255 255 255 0   255 0   0   255 0   255 255 255 0   255 0   255 255 255 0   255 0   0   255 0   255 255 255 0   255 0   0   255 0   255 255 255 255 255 255 0   255 0   0   255 0   0   255 0   255 255 255 0   255 0   0   255 0   0   255 0   255 255 255 0   255 0   0   255 0   255 255 255 0   255 0   255 255 255 0   255 0   255 255 255 0   255 0   0   255 0   255 255 255 0   255 0   255 255 255 0   255 0   255 255 255 0   255 0   255 255 255 255 255 255 0   255 0   0   255 0   0   255 0   255 255 255 255 255 255 255 255 255 0   255 0   0   255 0   255 255 255 255 255 255 0   255 0   0   255 0   0   255 0   255 255 255 0   255 0   0   255 0   0   255 0   0   255 0   0   255 0   255 255 255 0   255 0   0   255 0   
0   255 0   0   255 0   0   255 0   0   255 0   0   255 0   0   255 0   0   255 0   0   255 0   0   255 0   0   255 0   255 255 255 255 255 255 255 255 255 255 255 255 255 255 255 0   255 0   0   255 0   255 255 255 0   255 0   255 255 255 0   255 0   255 255 255 255 255 255 0   255 0   255 255 255 0   255 0   255 255 255 0   255 0   255 255 255 0   255 0   0   255 0   0   255 0   0   255 0   0   255 0   0   255 0   0   255 0   255 255 255 0   255 0   0   255 0   0   255 0   0   255 0   0   255 0   0   255 0   255 255 255 0   255 0   0   255 0   0   255 0   0   255 0   0   255 0   0   255 0   0   255 0   0   255 0   255 255 255 0   255 0   0   255 0   0   255 0   0   255 0   0   255 0   255 255 255 0   255 0   0   255 0   0   255 0   0   255 0   0   255 0   0   255 0   0   255 0   0   255 0   0   255 0   0   255 0   0   255 0   0   255 0   255 255 255 0   255 0   0   255 0   0   255 0   255 255 255 255 255 255 0   255 0   255 255 255 0   255 0   0   255 0   0   255 0   255 255 255 0   255 0   0   255 0   255 255 255 0   255 0   0   255 0   0   255 0   0   255 0   0   255 0   0   255 0   0   255 0   255 255 255 0   255 0   0   255 0   0   255 0   0   255 0   255 255 255 0   255 0   0   255 0   0   255 0   0   255 0   255 255 255 0   255 0   255 255 255 0   255 0   0   255 0   255 255 255 0   255 0   0   255 0   255 255 255 0   255 0   0   255 0   0   255 0   255 255 255 0   255 0   0   255 0   255 255 255 0   255 0   0   255 0   0   255 0   0   255 0   255 255 255 0   255 0   0   255 0   0   255 0   255 255 255 0   255 0   0   255 0   0   255 0   0   255 0   255 255 255 0   255 0   0   255 0   0   255 0   0   255 0   255 255 255 0   255 0   0   255 0   0   255 0   255 255 255 255 255 255 0   255 0   0   255 0   0   255 0   255 255 255 0   255 0   0   255 0   0   255 0   0   255 0   0   255 0   0   255 0   0   255 0   0   255 0   255 255 255 0   255 0   255 255 255 255 255 255 0   255 0   255 255 255 255 255 255 255 255 255 255 255 255 0   255 0   255 255 255 0   255 0   0   255 0   255 255 255 0   255 0   255 255 255 0   255 0   0   255 0   0   255 0   0   255 0   255 255 255 0   255 0   0   255 0   255 255 255 0   255 0   255 255 255 0   255 0   0   255 0   0   255 0   0   255 0   255 255 255 0   255 0   0   255 0   0   255 0   0   255 0   255 255 255 0   255 0   0   255 0   255 255 255 0   255 0   255 255 255 0   255 0   0   255 0   255 255 255 0   255 0   0   255 0   0   255 0   255 255 255 0   255 0   0   255 0   255 255 255 0   255 0   0   255 0   255 255 255 0   255 0   255 255 255 0   255 0   255 255 255 0   255 0   0   255 0   255 255 255 0   255 0   0   255 0   0   255 0   0   255 0   255 255 255 0   255 0   0   255 0   0   255 0   255 255 255 255 255 255 0   255 0   0   255 0   255 255 255 0   255 0   255 255 255 0   255 0   0   255 0   255 255 255 0   255 0   255 255 255 255 255 255 255 255 255 0   255 0   0   255 0   255 255 255 0   255 0   0   255 0   255 255 255 0   255 0   255 255 255 255 255 255 255 255 255 0   255 0   0   255 0   0   255 0   0   255 0   0   255 0   255 255 255 0   255 0   0   255 0   255 255 255 0   255 0   0   255 0   0   255 0   255 255 255 0   255 0   0   255 0   255 255 255 0   255 0   255 255 255 0   255 0   255 255 255 0   255 0   0   255 0   255 255 255 0   255 0   255 255 255 0   255 0   255 255 255 255 255 255 0   255 0   0   255 0   255 255 255 0   255 0   0   255 0   0   255 0   0   255 0   255 255 255 0   255 0   255 255 255 0   255 0   0   255 0   0   255 0   0   255 0   0   255 0   255 255 255 0   255 0   0   255 0   0   255 0   0   255 0   0   255 0   0   255 0   255 255 255 0   255 0   
0   255 0   0   255 0   255 255 255 0   255 0   0   255 0   0   255 0   0   255 0   0   255 0   0   255 0   0   255 0   0   255 0   255 255 255 0   255 0   255 255 255 0   255 0   255 255 255 255 255 255 255 255 255 255 255 255 255 255 255 255 255 255 255 255 255 0   255 0   0   255 0   255 255 255 0   255 0   255 255 255 255 255 255 0   255 0   255 255 255 0   255 0   0   255 0   0   255 0   0   255 0   0   255 0   0   255 0   0   255 0   255 255 255 0   255 0   0   255 0   0   255 0   0   255 0   255 255 255 0   255 0   0   255 0   0   255 0   0   255 0   0   255 0   0   255 0   0   255 0   0   255 0   0   255 0   0   255 0   0   255 0   0   255 0   0   255 0   0   255 0   255 255 255 0   255 0   0   255 0   0   255 0   0   255 0   0   255 0   0   255 0   0   255 0   0   255 0   0   255 0   255 255 255 0   255 0   0   255 0   0   255 0   255 255 255 0   255 0   0   255 0   0   255 0   0   255 0   255 255 255 255 255 255 0   255 0   0   255 0   0   255 0   0   255 0   255 255 255 0   255 0   0   255 0   255 255 255 255 255 255 255 255 255 255 255 255 0   255 0   255 255 255 255 255 255 255 255 255 0   255 0   0   255 0   0   255 0   0   255 0   0   255 0   255 255 255 0   255 0   255 255 255 255 255 255 255 255 255 0   255 0   0   255 0   0   255 0   255 255 255 255 255 255 0   255 0   0   255 0   0   255 0   255 255 255 0   255 0   0   255 0   0   255 0   0   255 0   255 255 255 255 255 255 0   255 0   0   255 0   0   255 0   255 255 255 255 255 255 0   255 0   0   255 0   0   255 0   0   255 0   0   255 0   0   255 0   0   255 0   0   255 0   255 255 255 0   255 0   0   255 0   0   255 0   0   255 0   0   255 0   0   255 0   0   255 0   0   255 0   0   255 0   0   255 0   0   255 0   0   255 0   0   255 0   0   255 0   0   255 0   0   255 0   0   255 0   0   255 0   0   255 0   0   255 0   255 255 255 0   255 0   0   255 0   0   255 0   255 255 255 255 255 255 255 255 255 255 255 255 255 255 255 0   255 0   0   255 0   255 255 255 0   255 0   255 255 255 255 255 255 255 255 255 0   255 0   0   255 0   0   255 0   255 255 255 255 255 255 255 255 255 0   255 0   255 255 255 255 255 255 255 255 255 0   255 0   0   255 0   255 255 255 255 255 255 255 255 255 255 255 255 0   255 0   255 255 255 0   255 0   0   255 0   0   255 0   0   255 0   255 255 255 255 255 255 255 255 255 255 255 255 0   255 0   255 255 255 0   255 0   0   255 0   255 255 255 0   255 0   0   255 0   255 255 255 255 255 255 255 255 255 0   255 0   0   255 0   255 255 255 255 255 255 0   255 0   0   255 0   255 255 255 0   255 0   0   255 0   255 255 255 0   255 0   255 255 255 255 255 255 255 255 255 255 255 255 0   255 0   255 255 255 0   255 0   0   255 0   0   255 0   255 255 255 255 255 255 0   255 0   0   255 0   255 255 255 0   255 0   0   255 0   255 255 255 255 255 255 0   255 0   0   255 0   255 255 255 0   255 0   0   255 0   0   255 0   0   255 0   0   255 0   255 255 255 255 255 255 0   255 0   255 255 255 255 255 255 0   255 0   0   255 0   255 255 255 0   255 0   255 255 255 255 255 255 255 255 255 0   255 0   0   255 0   0   255 0   255 255 255 0   255 0   0   255 0   0   255 0   0   255 0   255 255 255 255 255 255 0   255 0   0   255 0   0   255 0   255 255 255 0   255 0   0   255 0   0   255 0   0   255 0   255 255 255 0   255 0   255 255 255 0   255 0   255 255 255 0   255 0   0   255 0   255 255 255 0   255 0   0   255 0   255 255 255 255 255 255 0   255 0   0   255 0   255 255 255 255 255 255 255 255 255 255 255 255 0   255 0   0   255 0   255 255 255 255 255 255 0   255 0   0   255 0   0   255 0   0   255 0   0   255 0   255 255 255 0   255 0   
